<svg xmlns="http://www.w3.org/2000/svg" width="613" height="128" viewBox="0 0 613 128">
  <g fill="#FFF" fill-rule="evenodd">
    <path fill-rule="nonzero" d="M129.28,47 L129.28,31.088 L142.228,31.088 C143.892,31.088 145.4,30.854 146.752,30.386 C148.104,29.918 149.265333,29.2246667 150.236,28.306 C151.206667,27.3873333 151.952,26.2693333 152.472,24.952 C152.992,23.6346667 153.252,22.144 153.252,20.48 C153.252,18.816 152.992,17.3253333 152.472,16.008 C151.952,14.6906667 151.206667,13.5726667 150.236,12.654 C149.265333,11.7353333 148.104,11.042 146.752,10.574 C145.4,10.106 143.892,9.872 142.228,9.872 L125.744,9.872 L125.744,47 L129.28,47 Z M141.448,28.072 L129.28,28.072 L129.28,12.888 L141.448,12.888 C143.909333,12.888 145.902667,13.512 147.428,14.76 C148.953333,16.008 149.716,17.9146667 149.716,20.48 C149.716,23.0453333 148.953333,24.952 147.428,26.2 C145.902667,27.448 143.909333,28.072 141.448,28.072 Z M166.996,47.728 C168.244,47.728 169.509333,47.5893333 170.792,47.312 C172.074667,47.0346667 173.227333,46.5753333 174.25,45.934 C175.272667,45.2926667 176.113333,44.4606667 176.772,43.438 C177.430667,42.4153333 177.76,41.176 177.76,39.72 C177.76,38.5413333 177.534667,37.5186667 177.084,36.652 C176.633333,35.7853333 176.052667,35.0573333 175.342,34.468 C174.631333,33.8786667 173.816667,33.402 172.898,33.038 C171.979333,32.674 171.052,32.4226667 170.116,32.284 L165.748,31.296 C165.193333,31.1573333 164.586667,30.9753333 163.928,30.75 C163.269333,30.5246667 162.662667,30.2386667 162.108,29.892 C161.553333,29.5453333 161.094,29.1206667 160.73,28.618 C160.366,28.1153333 160.184,27.5 160.184,26.772 C160.184,25.9053333 160.374667,25.1773333 160.756,24.588 C161.137333,23.9986667 161.64,23.522 162.264,23.158 C162.888,22.794 163.572667,22.534 164.318,22.378 C165.063333,22.222 165.8,22.144 166.528,22.144 C167.464,22.144 168.348,22.2566667 169.18,22.482 C170.012,22.7073333 170.748667,23.0626667 171.39,23.548 C172.031333,24.0333333 172.542667,24.6486667 172.924,25.394 C173.305333,26.1393333 173.513333,27.0146667 173.548,28.02 L176.824,28.02 C176.754667,26.564 176.46,25.2986667 175.94,24.224 C175.42,23.1493333 174.718,22.248 173.834,21.52 C172.95,20.792 171.927333,20.2546667 170.766,19.908 C169.604667,19.5613333 168.348,19.388 166.996,19.388 C165.817333,19.388 164.63,19.5266667 163.434,19.804 C162.238,20.0813333 161.154667,20.5146667 160.184,21.104 C159.213333,21.6933333 158.424667,22.4733333 157.818,23.444 C157.211333,24.4146667 156.908,25.576 156.908,26.928 C156.908,28.072 157.098667,29.034 157.48,29.814 C157.861333,30.594 158.39,31.2526667 159.066,31.79 C159.742,32.3273333 160.530667,32.778 161.432,33.142 C162.333333,33.506 163.321333,33.8266667 164.396,34.104 L168.608,35.04 C169.336,35.2133333 170.055333,35.4213333 170.766,35.664 C171.476667,35.9066667 172.109333,36.21 172.664,36.574 C173.218667,36.938 173.660667,37.3886667 173.99,37.926 C174.319333,38.4633333 174.484,39.1306667 174.484,39.928 C174.484,40.864 174.25,41.6526667 173.782,42.294 C173.314,42.9353333 172.716,43.464 171.988,43.88 C171.26,44.296 170.471333,44.5906667 169.622,44.764 C168.772667,44.9373333 167.949333,45.024 167.152,45.024 C164.968,45.024 163.139333,44.4606667 161.666,43.334 C160.192667,42.2073333 159.386667,40.5346667 159.248,38.316 L155.972,38.316 C156.249333,41.6093333 157.367333,44.0013333 159.326,45.492 C161.284667,46.9826667 163.841333,47.728 166.996,47.728 Z M184.224,56.88 C185.264,56.88 186.122,56.7846667 186.798,56.594 C187.474,56.4033333 188.063333,56.0913333 188.566,55.658 C189.068667,55.2246667 189.528,54.6353333 189.944,53.89 C190.36,53.1446667 190.810667,52.2 191.296,51.056 L202.944,20.168 L199.668,20.168 L191.4,43.048 L182.56,20.168 L179.076,20.168 L189.788,46.896 L188.644,49.912 C188.366667,50.536 188.106667,51.108 187.864,51.628 C187.621333,52.148 187.326667,52.59 186.98,52.954 C186.633333,53.318 186.226,53.604 185.758,53.812 C185.29,54.02 184.692,54.124 183.964,54.124 C183.582667,54.124 183.21,54.098 182.846,54.046 C182.482,53.994 182.109333,53.9333333 181.728,53.864 L181.728,56.62 C182.005333,56.724 182.326,56.7846667 182.69,56.802 C183.054,56.8193333 183.565333,56.8453333 184.224,56.88 Z M217.104,47.728 C220.154667,47.728 222.650667,46.818 224.592,44.998 C226.533333,43.178 227.729333,40.6386667 228.18,37.38 L224.904,37.38 C224.8,38.4893333 224.522667,39.512 224.072,40.448 C223.621333,41.384 223.049333,42.19 222.356,42.866 C221.662667,43.542 220.865333,44.0706667 219.964,44.452 C219.062667,44.8333333 218.109333,45.024 217.104,45.024 C215.544,45.024 214.174667,44.6946667 212.996,44.036 C211.817333,43.3773333 210.838,42.5106667 210.058,41.436 C209.278,40.3613333 208.688667,39.1393333 208.29,37.77 C207.891333,36.4006667 207.692,35.0053333 207.692,33.584 C207.692,32.1626667 207.891333,30.7673333 208.29,29.398 C208.688667,28.0286667 209.278,26.8066667 210.058,25.732 C210.838,24.6573333 211.817333,23.7906667 212.996,23.132 C214.174667,22.4733333 215.544,22.144 217.104,22.144 C219.288,22.144 220.986667,22.716 222.2,23.86 C223.413333,25.004 224.245333,26.5813333 224.696,28.592 L227.972,28.592 C227.590667,25.5066667 226.403333,23.2013333 224.41,21.676 C222.416667,20.1506667 219.981333,19.388 217.104,19.388 C215.058667,19.388 213.247333,19.7693333 211.67,20.532 C210.092667,21.2946667 208.766667,22.3173333 207.692,23.6 C206.617333,24.8826667 205.802667,26.382 205.248,28.098 C204.693333,29.814 204.416,31.6426667 204.416,33.584 C204.416,35.5253333 204.693333,37.354 205.248,39.07 C205.802667,40.786 206.617333,42.2853333 207.692,43.568 C208.766667,44.8506667 210.092667,45.8646667 211.67,46.61 C213.247333,47.3553333 215.058667,47.728 217.104,47.728 Z M235.58,47 L235.58,31.348 C235.614667,30.0306667 235.831333,28.8086667 236.23,27.682 C236.628667,26.5553333 237.183333,25.5846667 237.894,24.77 C238.604667,23.9553333 239.471333,23.314 240.494,22.846 C241.516667,22.378 242.686667,22.144 244.004,22.144 C245.321333,22.144 246.422,22.352 247.306,22.768 C248.19,23.184 248.892,23.756 249.412,24.484 C249.932,25.212 250.296,26.07 250.504,27.058 C250.712,28.046 250.816,29.112 250.816,30.256 L250.816,47 L254.092,47 L254.092,29.736 C254.092,28.1413333 253.936,26.7026667 253.624,25.42 C253.312,24.1373333 252.774667,23.054 252.012,22.17 C251.249333,21.286 250.235333,20.6013333 248.97,20.116 C247.704667,19.6306667 246.136,19.388 244.264,19.388 C242.357333,19.388 240.606667,19.882 239.012,20.87 C237.417333,21.858 236.308,23.1666667 235.684,24.796 L235.58,24.796 L235.58,9.872 L232.304,9.872 L232.304,47 L235.58,47 Z M271.216,47.728 C273.261333,47.728 275.072667,47.3553333 276.65,46.61 C278.227333,45.8646667 279.553333,44.8506667 280.628,43.568 C281.702667,42.2853333 282.517333,40.786 283.072,39.07 C283.626667,37.354 283.904,35.5253333 283.904,33.584 C283.904,31.6426667 283.626667,29.814 283.072,28.098 C282.517333,26.382 281.702667,24.8826667 280.628,23.6 C279.553333,22.3173333 278.227333,21.2946667 276.65,20.532 C275.072667,19.7693333 273.261333,19.388 271.216,19.388 C269.170667,19.388 267.359333,19.7693333 265.782,20.532 C264.204667,21.2946667 262.878667,22.3173333 261.804,23.6 C260.729333,24.8826667 259.914667,26.382 259.36,28.098 C258.805333,29.814 258.528,31.6426667 258.528,33.584 C258.528,35.5253333 258.805333,37.354 259.36,39.07 C259.914667,40.786 260.729333,42.2853333 261.804,43.568 C262.878667,44.8506667 264.204667,45.8646667 265.782,46.61 C267.359333,47.3553333 269.170667,47.728 271.216,47.728 Z M271.216,45.024 C269.656,45.024 268.286667,44.6946667 267.108,44.036 C265.929333,43.3773333 264.95,42.5106667 264.17,41.436 C263.39,40.3613333 262.800667,39.1393333 262.402,37.77 C262.003333,36.4006667 261.804,35.0053333 261.804,33.584 C261.804,32.1626667 262.003333,30.7673333 262.402,29.398 C262.800667,28.0286667 263.39,26.8066667 264.17,25.732 C264.95,24.6573333 265.929333,23.7906667 267.108,23.132 C268.286667,22.4733333 269.656,22.144 271.216,22.144 C272.776,22.144 274.145333,22.4733333 275.324,23.132 C276.502667,23.7906667 277.482,24.6573333 278.262,25.732 C279.042,26.8066667 279.631333,28.0286667 280.03,29.398 C280.428667,30.7673333 280.628,32.1626667 280.628,33.584 C280.628,35.0053333 280.428667,36.4006667 280.03,37.77 C279.631333,39.1393333 279.042,40.3613333 278.262,41.436 C277.482,42.5106667 276.502667,43.3773333 275.324,44.036 C274.145333,44.6946667 272.776,45.024 271.216,45.024 Z M291.72,47 L291.72,9.872 L288.444,9.872 L288.444,47 L291.72,47 Z M308.948,47.728 C310.993333,47.728 312.804667,47.3553333 314.382,46.61 C315.959333,45.8646667 317.285333,44.8506667 318.36,43.568 C319.434667,42.2853333 320.249333,40.786 320.804,39.07 C321.358667,37.354 321.636,35.5253333 321.636,33.584 C321.636,31.6426667 321.358667,29.814 320.804,28.098 C320.249333,26.382 319.434667,24.8826667 318.36,23.6 C317.285333,22.3173333 315.959333,21.2946667 314.382,20.532 C312.804667,19.7693333 310.993333,19.388 308.948,19.388 C306.902667,19.388 305.091333,19.7693333 303.514,20.532 C301.936667,21.2946667 300.610667,22.3173333 299.536,23.6 C298.461333,24.8826667 297.646667,26.382 297.092,28.098 C296.537333,29.814 296.26,31.6426667 296.26,33.584 C296.26,35.5253333 296.537333,37.354 297.092,39.07 C297.646667,40.786 298.461333,42.2853333 299.536,43.568 C300.610667,44.8506667 301.936667,45.8646667 303.514,46.61 C305.091333,47.3553333 306.902667,47.728 308.948,47.728 Z M308.948,45.024 C307.388,45.024 306.018667,44.6946667 304.84,44.036 C303.661333,43.3773333 302.682,42.5106667 301.902,41.436 C301.122,40.3613333 300.532667,39.1393333 300.134,37.77 C299.735333,36.4006667 299.536,35.0053333 299.536,33.584 C299.536,32.1626667 299.735333,30.7673333 300.134,29.398 C300.532667,28.0286667 301.122,26.8066667 301.902,25.732 C302.682,24.6573333 303.661333,23.7906667 304.84,23.132 C306.018667,22.4733333 307.388,22.144 308.948,22.144 C310.508,22.144 311.877333,22.4733333 313.056,23.132 C314.234667,23.7906667 315.214,24.6573333 315.994,25.732 C316.774,26.8066667 317.363333,28.0286667 317.762,29.398 C318.160667,30.7673333 318.36,32.1626667 318.36,33.584 C318.36,35.0053333 318.160667,36.4006667 317.762,37.77 C317.363333,39.1393333 316.774,40.3613333 315.994,41.436 C315.214,42.5106667 314.234667,43.3773333 313.056,44.036 C311.877333,44.6946667 310.508,45.024 308.948,45.024 Z M336.888,57.66 C339.072,57.66 340.918,57.3653333 342.426,56.776 C343.934,56.1866667 345.156,55.3373333 346.092,54.228 C347.028,53.1186667 347.712667,51.7666667 348.146,50.172 C348.579333,48.5773333 348.796,46.792 348.796,44.816 L348.796,20.168 L345.52,20.168 L345.52,24.796 L345.416,24.796 C345.104,24.068 344.662,23.3746667 344.09,22.716 C343.518,22.0573333 342.868,21.4766667 342.14,20.974 C341.412,20.4713333 340.606,20.0813333 339.722,19.804 C338.838,19.5266667 337.893333,19.388 336.888,19.388 C334.946667,19.388 333.222,19.7433333 331.714,20.454 C330.206,21.1646667 328.940667,22.1353333 327.918,23.366 C326.895333,24.5966667 326.115333,26.0353333 325.578,27.682 C325.040667,29.3286667 324.772,31.0706667 324.772,32.908 C324.772,34.8146667 324.997333,36.6086667 325.448,38.29 C325.898667,39.9713333 326.618,41.436 327.606,42.684 C328.594,43.932 329.850667,44.9113333 331.376,45.622 C332.901333,46.3326667 334.738667,46.688 336.888,46.688 C338.864,46.688 340.588667,46.1853333 342.062,45.18 C343.535333,44.1746667 344.653333,42.84 345.416,41.176 L345.52,41.176 L345.52,44.816 C345.52,48.0746667 344.844,50.5706667 343.492,52.304 C342.14,54.0373333 339.938667,54.904 336.888,54.904 C335.986667,54.904 335.102667,54.8086667 334.236,54.618 C333.369333,54.4273333 332.580667,54.124 331.87,53.708 C331.159333,53.292 330.552667,52.746 330.05,52.07 C329.547333,51.394 329.209333,50.5533333 329.036,49.548 L325.76,49.548 C325.864,50.9693333 326.254,52.1913333 326.93,53.214 C327.606,54.2366667 328.455333,55.0773333 329.478,55.736 C330.500667,56.3946667 331.653333,56.88 332.936,57.192 C334.218667,57.504 335.536,57.66 336.888,57.66 Z M336.888,43.932 C335.362667,43.932 334.045333,43.6286667 332.936,43.022 C331.826667,42.4153333 330.908,41.618 330.18,40.63 C329.452,39.642 328.914667,38.5066667 328.568,37.224 C328.221333,35.9413333 328.048,34.624 328.048,33.272 C328.048,31.8853333 328.212667,30.5246667 328.542,29.19 C328.871333,27.8553333 329.4,26.668 330.128,25.628 C330.856,24.588 331.774667,23.7473333 332.884,23.106 C333.993333,22.4646667 335.328,22.144 336.888,22.144 C338.448,22.144 339.774,22.4733333 340.866,23.132 C341.958,23.7906667 342.850667,24.6573333 343.544,25.732 C344.237333,26.8066667 344.74,28.0026667 345.052,29.32 C345.364,30.6373333 345.52,31.9546667 345.52,33.272 C345.52,34.624 345.338,35.9413333 344.974,37.224 C344.61,38.5066667 344.064,39.642 343.336,40.63 C342.608,41.618 341.706667,42.4153333 340.632,43.022 C339.557333,43.6286667 338.309333,43.932 336.888,43.932 Z M357.964,15.124 L357.964,9.872 L354.688,9.872 L354.688,15.124 L357.964,15.124 Z M357.964,47 L357.964,20.168 L354.688,20.168 L354.688,47 L357.964,47 Z M373.372,47.728 C374.62,47.728 375.885333,47.5893333 377.168,47.312 C378.450667,47.0346667 379.603333,46.5753333 380.626,45.934 C381.648667,45.2926667 382.489333,44.4606667 383.148,43.438 C383.806667,42.4153333 384.136,41.176 384.136,39.72 C384.136,38.5413333 383.910667,37.5186667 383.46,36.652 C383.009333,35.7853333 382.428667,35.0573333 381.718,34.468 C381.007333,33.8786667 380.192667,33.402 379.274,33.038 C378.355333,32.674 377.428,32.4226667 376.492,32.284 L372.124,31.296 C371.569333,31.1573333 370.962667,30.9753333 370.304,30.75 C369.645333,30.5246667 369.038667,30.2386667 368.484,29.892 C367.929333,29.5453333 367.47,29.1206667 367.106,28.618 C366.742,28.1153333 366.56,27.5 366.56,26.772 C366.56,25.9053333 366.750667,25.1773333 367.132,24.588 C367.513333,23.9986667 368.016,23.522 368.64,23.158 C369.264,22.794 369.948667,22.534 370.694,22.378 C371.439333,22.222 372.176,22.144 372.904,22.144 C373.84,22.144 374.724,22.2566667 375.556,22.482 C376.388,22.7073333 377.124667,23.0626667 377.766,23.548 C378.407333,24.0333333 378.918667,24.6486667 379.3,25.394 C379.681333,26.1393333 379.889333,27.0146667 379.924,28.02 L383.2,28.02 C383.130667,26.564 382.836,25.2986667 382.316,24.224 C381.796,23.1493333 381.094,22.248 380.21,21.52 C379.326,20.792 378.303333,20.2546667 377.142,19.908 C375.980667,19.5613333 374.724,19.388 373.372,19.388 C372.193333,19.388 371.006,19.5266667 369.81,19.804 C368.614,20.0813333 367.530667,20.5146667 366.56,21.104 C365.589333,21.6933333 364.800667,22.4733333 364.194,23.444 C363.587333,24.4146667 363.284,25.576 363.284,26.928 C363.284,28.072 363.474667,29.034 363.856,29.814 C364.237333,30.594 364.766,31.2526667 365.442,31.79 C366.118,32.3273333 366.906667,32.778 367.808,33.142 C368.709333,33.506 369.697333,33.8266667 370.772,34.104 L374.984,35.04 C375.712,35.2133333 376.431333,35.4213333 377.142,35.664 C377.852667,35.9066667 378.485333,36.21 379.04,36.574 C379.594667,36.938 380.036667,37.3886667 380.366,37.926 C380.695333,38.4633333 380.86,39.1306667 380.86,39.928 C380.86,40.864 380.626,41.6526667 380.158,42.294 C379.69,42.9353333 379.092,43.464 378.364,43.88 C377.636,44.296 376.847333,44.5906667 375.998,44.764 C375.148667,44.9373333 374.325333,45.024 373.528,45.024 C371.344,45.024 369.515333,44.4606667 368.042,43.334 C366.568667,42.2073333 365.762667,40.5346667 365.624,38.316 L362.348,38.316 C362.625333,41.6093333 363.743333,44.0013333 365.702,45.492 C367.660667,46.9826667 370.217333,47.728 373.372,47.728 Z M399.804,47.728 C402.854667,47.728 405.350667,46.818 407.292,44.998 C409.233333,43.178 410.429333,40.6386667 410.88,37.38 L407.604,37.38 C407.5,38.4893333 407.222667,39.512 406.772,40.448 C406.321333,41.384 405.749333,42.19 405.056,42.866 C404.362667,43.542 403.565333,44.0706667 402.664,44.452 C401.762667,44.8333333 400.809333,45.024 399.804,45.024 C398.244,45.024 396.874667,44.6946667 395.696,44.036 C394.517333,43.3773333 393.538,42.5106667 392.758,41.436 C391.978,40.3613333 391.388667,39.1393333 390.99,37.77 C390.591333,36.4006667 390.392,35.0053333 390.392,33.584 C390.392,32.1626667 390.591333,30.7673333 390.99,29.398 C391.388667,28.0286667 391.978,26.8066667 392.758,25.732 C393.538,24.6573333 394.517333,23.7906667 395.696,23.132 C396.874667,22.4733333 398.244,22.144 399.804,22.144 C401.988,22.144 403.686667,22.716 404.9,23.86 C406.113333,25.004 406.945333,26.5813333 407.396,28.592 L410.672,28.592 C410.290667,25.5066667 409.103333,23.2013333 407.11,21.676 C405.116667,20.1506667 402.681333,19.388 399.804,19.388 C397.758667,19.388 395.947333,19.7693333 394.37,20.532 C392.792667,21.2946667 391.466667,22.3173333 390.392,23.6 C389.317333,24.8826667 388.502667,26.382 387.948,28.098 C387.393333,29.814 387.116,31.6426667 387.116,33.584 C387.116,35.5253333 387.393333,37.354 387.948,39.07 C388.502667,40.786 389.317333,42.2853333 390.392,43.568 C391.466667,44.8506667 392.792667,45.8646667 394.37,46.61 C395.947333,47.3553333 397.758667,47.728 399.804,47.728 Z M418.28,47 L418.28,31.348 C418.314667,30.0306667 418.531333,28.8086667 418.93,27.682 C419.328667,26.5553333 419.883333,25.5846667 420.594,24.77 C421.304667,23.9553333 422.171333,23.314 423.194,22.846 C424.216667,22.378 425.386667,22.144 426.704,22.144 C428.021333,22.144 429.122,22.352 430.006,22.768 C430.89,23.184 431.592,23.756 432.112,24.484 C432.632,25.212 432.996,26.07 433.204,27.058 C433.412,28.046 433.516,29.112 433.516,30.256 L433.516,47 L436.792,47 L436.792,29.736 C436.792,28.1413333 436.636,26.7026667 436.324,25.42 C436.012,24.1373333 435.474667,23.054 434.712,22.17 C433.949333,21.286 432.935333,20.6013333 431.67,20.116 C430.404667,19.6306667 428.836,19.388 426.964,19.388 C425.057333,19.388 423.306667,19.882 421.712,20.87 C420.117333,21.858 419.008,23.1666667 418.384,24.796 L418.28,24.796 L418.28,9.872 L415.004,9.872 L415.004,47 L418.28,47 Z M453.344,47.728 C456.741333,47.728 459.367333,46.896 461.222,45.232 C463.076667,43.568 464.350667,41.2106667 465.044,38.16 L461.768,38.16 C461.248,40.24 460.312,41.904 458.96,43.152 C457.608,44.4 455.736,45.024 453.344,45.024 C451.784,45.024 450.449333,44.6946667 449.34,44.036 C448.230667,43.3773333 447.312,42.5453333 446.584,41.54 C445.856,40.5346667 445.327333,39.3993333 444.998,38.134 C444.668667,36.8686667 444.504,35.6466667 444.504,34.468 L465.148,34.468 C465.217333,32.596 465.044,30.75 464.628,28.93 C464.212,27.11 463.527333,25.498 462.574,24.094 C461.620667,22.69 460.381333,21.5546667 458.856,20.688 C457.330667,19.8213333 455.493333,19.388 453.344,19.388 C451.229333,19.388 449.400667,19.7953333 447.858,20.61 C446.315333,21.4246667 445.058667,22.4993333 444.088,23.834 C443.117333,25.1686667 442.398,26.6853333 441.93,28.384 C441.462,30.0826667 441.228,31.816 441.228,33.584 C441.228,35.4906667 441.462,37.302 441.93,39.018 C442.398,40.734 443.117333,42.242 444.088,43.542 C445.058667,44.842 446.315333,45.8646667 447.858,46.61 C449.400667,47.3553333 451.229333,47.728 453.344,47.728 Z M461.872,31.712 L444.504,31.712 C444.642667,30.4986667 444.928667,29.3113333 445.362,28.15 C445.795333,26.9886667 446.376,25.966 447.104,25.082 C447.832,24.198 448.716,23.4873333 449.756,22.95 C450.796,22.4126667 451.992,22.144 453.344,22.144 C454.661333,22.144 455.84,22.4126667 456.88,22.95 C457.92,23.4873333 458.804,24.198 459.532,25.082 C460.26,25.966 460.823333,26.98 461.222,28.124 C461.620667,29.268 461.837333,30.464 461.872,31.712 Z M487.384,47 L487.384,31.088 L500.332,31.088 C501.996,31.088 503.504,30.854 504.856,30.386 C506.208,29.918 507.369333,29.2246667 508.34,28.306 C509.310667,27.3873333 510.056,26.2693333 510.576,24.952 C511.096,23.6346667 511.356,22.144 511.356,20.48 C511.356,18.816 511.096,17.3253333 510.576,16.008 C510.056,14.6906667 509.310667,13.5726667 508.34,12.654 C507.369333,11.7353333 506.208,11.042 504.856,10.574 C503.504,10.106 501.996,9.872 500.332,9.872 L483.848,9.872 L483.848,47 L487.384,47 Z M499.552,28.072 L487.384,28.072 L487.384,12.888 L499.552,12.888 C502.013333,12.888 504.006667,13.512 505.532,14.76 C507.057333,16.008 507.82,17.9146667 507.82,20.48 C507.82,23.0453333 507.057333,24.952 505.532,26.2 C504.006667,27.448 502.013333,28.072 499.552,28.072 Z M518.86,47 L518.86,32.7 C518.86,31.2786667 519.102667,29.97 519.588,28.774 C520.073333,27.578 520.758,26.5466667 521.642,25.68 C522.526,24.8133333 523.574667,24.146 524.788,23.678 C526.001333,23.21 527.353333,23.0106667 528.844,23.08 L528.844,19.804 C526.417333,19.7 524.328667,20.2373333 522.578,21.416 C520.827333,22.5946667 519.536,24.276 518.704,26.46 L518.6,26.46 L518.6,20.168 L515.584,20.168 L515.584,47 L518.86,47 Z M539.104,47.728 C540.421333,47.728 541.556667,47.6066667 542.51,47.364 C543.463333,47.1213333 544.312667,46.7746667 545.058,46.324 C545.803333,45.8733333 546.479333,45.31 547.086,44.634 C547.692667,43.958 548.290667,43.1866667 548.88,42.32 L548.984,42.32 C548.984,43.0133333 549.027333,43.646 549.114,44.218 C549.200667,44.79 549.382667,45.284 549.66,45.7 C549.937333,46.116 550.327333,46.4366667 550.83,46.662 C551.332667,46.8873333 552,47 552.832,47 C553.282667,47 553.655333,46.9826667 553.95,46.948 C554.244667,46.9133333 554.582667,46.8613333 554.964,46.792 L554.964,44.036 C554.652,44.1746667 554.305333,44.244 553.924,44.244 C552.641333,44.244 552,43.5853333 552,42.268 L552,28.02 C552,26.2173333 551.705333,24.7526667 551.116,23.626 C550.526667,22.4993333 549.764,21.624 548.828,21 C547.892,20.376 546.834667,19.9513333 545.656,19.726 C544.477333,19.5006667 543.298667,19.388 542.12,19.388 C540.56,19.388 539.138667,19.5613333 537.856,19.908 C536.573333,20.2546667 535.455333,20.792 534.502,21.52 C533.548667,22.248 532.794667,23.184 532.24,24.328 C531.685333,25.472 531.356,26.824 531.252,28.384 L534.528,28.384 C534.597333,26.2 535.290667,24.614 536.608,23.626 C537.925333,22.638 539.624,22.144 541.704,22.144 C542.674667,22.144 543.584667,22.222 544.434,22.378 C545.283333,22.534 546.028667,22.82 546.67,23.236 C547.311333,23.652 547.814,24.2153333 548.178,24.926 C548.542,25.6366667 548.724,26.5466667 548.724,27.656 C548.724,28.384 548.628667,28.9733333 548.438,29.424 C548.247333,29.8746667 547.978667,30.23 547.632,30.49 C547.285333,30.75 546.852,30.932 546.332,31.036 C545.812,31.14 545.205333,31.2266667 544.512,31.296 C542.744,31.504 541.002,31.7206667 539.286,31.946 C537.57,32.1713333 536.027333,32.5613333 534.658,33.116 C533.288667,33.6706667 532.188,34.4766667 531.356,35.534 C530.524,36.5913333 530.108,38.056 530.108,39.928 C530.108,41.28 530.342,42.45 530.81,43.438 C531.278,44.426 531.919333,45.2406667 532.734,45.882 C533.548667,46.5233333 534.502,46.9913333 535.594,47.286 C536.686,47.5806667 537.856,47.728 539.104,47.728 Z M539.364,45.024 C538.601333,45.024 537.856,44.9026667 537.128,44.66 C536.4,44.4173333 535.758667,44.062 535.204,43.594 C534.649333,43.126 534.207333,42.5713333 533.878,41.93 C533.548667,41.2886667 533.384,40.552 533.384,39.72 C533.384,38.4026667 533.774,37.3886667 534.554,36.678 C535.334,35.9673333 536.330667,35.4213333 537.544,35.04 C538.757333,34.6586667 540.100667,34.3726667 541.574,34.182 C543.047333,33.9913333 544.477333,33.7746667 545.864,33.532 C546.314667,33.4626667 546.834667,33.3413333 547.424,33.168 C548.013333,32.9946667 548.412,32.7173333 548.62,32.336 L548.724,32.336 L548.724,36.6 C548.724,37.9173333 548.472667,39.096 547.97,40.136 C547.467333,41.176 546.791333,42.06 545.942,42.788 C545.092667,43.516 544.096,44.0706667 542.952,44.452 C541.808,44.8333333 540.612,45.024 539.364,45.024 Z M559.14,47 L567.408,35.716 L575.832,47 L579.992,47 L569.54,33.012 L579.212,20.168 L575.104,20.168 L567.616,30.36 L559.972,20.168 L555.864,20.168 L565.484,33.064 L555.084,47 L559.14,47 Z M586.092,15.124 L586.092,9.872 L582.816,9.872 L582.816,15.124 L586.092,15.124 Z M586.092,47 L586.092,20.168 L582.816,20.168 L582.816,47 L586.092,47 Z M601.5,47.728 C602.748,47.728 604.013333,47.5893333 605.296,47.312 C606.578667,47.0346667 607.731333,46.5753333 608.754,45.934 C609.776667,45.2926667 610.617333,44.4606667 611.276,43.438 C611.934667,42.4153333 612.264,41.176 612.264,39.72 C612.264,38.5413333 612.038667,37.5186667 611.588,36.652 C611.137333,35.7853333 610.556667,35.0573333 609.846,34.468 C609.135333,33.8786667 608.320667,33.402 607.402,33.038 C606.483333,32.674 605.556,32.4226667 604.62,32.284 L600.252,31.296 C599.697333,31.1573333 599.090667,30.9753333 598.432,30.75 C597.773333,30.5246667 597.166667,30.2386667 596.612,29.892 C596.057333,29.5453333 595.598,29.1206667 595.234,28.618 C594.87,28.1153333 594.688,27.5 594.688,26.772 C594.688,25.9053333 594.878667,25.1773333 595.26,24.588 C595.641333,23.9986667 596.144,23.522 596.768,23.158 C597.392,22.794 598.076667,22.534 598.822,22.378 C599.567333,22.222 600.304,22.144 601.032,22.144 C601.968,22.144 602.852,22.2566667 603.684,22.482 C604.516,22.7073333 605.252667,23.0626667 605.894,23.548 C606.535333,24.0333333 607.046667,24.6486667 607.428,25.394 C607.809333,26.1393333 608.017333,27.0146667 608.052,28.02 L611.328,28.02 C611.258667,26.564 610.964,25.2986667 610.444,24.224 C609.924,23.1493333 609.222,22.248 608.338,21.52 C607.454,20.792 606.431333,20.2546667 605.27,19.908 C604.108667,19.5613333 602.852,19.388 601.5,19.388 C600.321333,19.388 599.134,19.5266667 597.938,19.804 C596.742,20.0813333 595.658667,20.5146667 594.688,21.104 C593.717333,21.6933333 592.928667,22.4733333 592.322,23.444 C591.715333,24.4146667 591.412,25.576 591.412,26.928 C591.412,28.072 591.602667,29.034 591.984,29.814 C592.365333,30.594 592.894,31.2526667 593.57,31.79 C594.246,32.3273333 595.034667,32.778 595.936,33.142 C596.837333,33.506 597.825333,33.8266667 598.9,34.104 L603.112,35.04 C603.84,35.2133333 604.559333,35.4213333 605.27,35.664 C605.980667,35.9066667 606.613333,36.21 607.168,36.574 C607.722667,36.938 608.164667,37.3886667 608.494,37.926 C608.823333,38.4633333 608.988,39.1306667 608.988,39.928 C608.988,40.864 608.754,41.6526667 608.286,42.294 C607.818,42.9353333 607.22,43.464 606.492,43.88 C605.764,44.296 604.975333,44.5906667 604.126,44.764 C603.276667,44.9373333 602.453333,45.024 601.656,45.024 C599.472,45.024 597.643333,44.4606667 596.17,43.334 C594.696667,42.2073333 593.890667,40.5346667 593.752,38.316 L590.476,38.316 C590.753333,41.6093333 591.871333,44.0013333 593.83,45.492 C595.788667,46.9826667 598.345333,47.728 601.5,47.728 Z M133.44,99.728 C135.450667,99.728 137.140667,99.5026667 138.51,99.052 C139.879333,98.6013333 140.988667,97.9253333 141.838,97.024 C142.687333,96.1226667 143.302667,94.9786667 143.684,93.592 C144.065333,92.2053333 144.256,90.5586667 144.256,88.652 L144.256,61.872 L140.72,61.872 L140.72,87.144 C140.72,88.8426667 140.616,90.2986667 140.408,91.512 C140.2,92.7253333 139.836,93.722 139.316,94.502 C138.796,95.282 138.085333,95.854 137.184,96.218 C136.282667,96.582 135.138667,96.764 133.752,96.764 C131.914667,96.764 130.519333,96.4086667 129.566,95.698 C128.612667,94.9873333 127.928,94.1293333 127.512,93.124 C127.096,92.1186667 126.853333,91.0613333 126.784,89.952 C126.714667,88.8426667 126.662667,87.8893333 126.628,87.092 L123.092,87.092 C123.092,88.7213333 123.230667,90.2986667 123.508,91.824 C123.785333,93.3493333 124.305333,94.6926667 125.068,95.854 C125.830667,97.0153333 126.888,97.9513333 128.24,98.662 C129.592,99.3726667 131.325333,99.728 133.44,99.728 Z M160.08,99.728 C162.090667,99.728 163.919333,99.2513333 165.566,98.298 C167.212667,97.3446667 168.469333,95.9666667 169.336,94.164 L169.44,94.164 L169.44,99 L172.456,99 L172.456,72.168 L169.18,72.168 L169.18,86.26 C169.18,87.612 169.024,88.938 168.712,90.238 C168.4,91.538 167.914667,92.6906667 167.256,93.696 C166.597333,94.7013333 165.765333,95.5073333 164.76,96.114 C163.754667,96.7206667 162.541333,97.024 161.12,97.024 C158.52,97.024 156.691333,96.4 155.634,95.152 C154.576667,93.904 154.013333,92.0666667 153.944,89.64 L153.944,72.168 L150.668,72.168 L150.668,89.588 C150.668,91.1826667 150.841333,92.604 151.188,93.852 C151.534667,95.1 152.080667,96.1573333 152.826,97.024 C153.571333,97.8906667 154.542,98.558 155.738,99.026 C156.934,99.494 158.381333,99.728 160.08,99.728 Z M189.164,99.728 C190.134667,99.728 191.114,99.5893333 192.102,99.312 C193.09,99.0346667 194.017333,98.6446667 194.884,98.142 C195.750667,97.6393333 196.522,97.024 197.198,96.296 C197.874,95.568 198.385333,94.7706667 198.732,93.904 L198.836,93.904 L198.836,99 L201.852,99 L201.852,61.872 L198.576,61.872 L198.576,77.264 L198.472,77.264 C198.125333,76.2933333 197.631333,75.444 196.99,74.716 C196.348667,73.988 195.612,73.3726667 194.78,72.87 C193.948,72.3673333 193.055333,71.9946667 192.102,71.752 C191.148667,71.5093333 190.169333,71.388 189.164,71.388 C187.118667,71.388 185.342,71.7693333 183.834,72.532 C182.326,73.2946667 181.069333,74.326 180.064,75.626 C179.058667,76.926 178.313333,78.434 177.828,80.15 C177.342667,81.866 177.1,83.6773333 177.1,85.584 C177.1,87.4906667 177.342667,89.302 177.828,91.018 C178.313333,92.734 179.058667,94.242 180.064,95.542 C181.069333,96.842 182.326,97.8646667 183.834,98.61 C185.342,99.3553333 187.118667,99.728 189.164,99.728 Z M189.164,97.024 C187.604,97.024 186.269333,96.686 185.16,96.01 C184.050667,95.334 183.140667,94.4586667 182.43,93.384 C181.719333,92.3093333 181.199333,91.0873333 180.87,89.718 C180.540667,88.3486667 180.376,86.9706667 180.376,85.584 C180.376,84.1973333 180.540667,82.8193333 180.87,81.45 C181.199333,80.0806667 181.719333,78.8586667 182.43,77.784 C183.140667,76.7093333 184.050667,75.834 185.16,75.158 C186.269333,74.482 187.604,74.144 189.164,74.144 C190.897333,74.144 192.362,74.482 193.558,75.158 C194.754,75.834 195.724667,76.7093333 196.47,77.784 C197.215333,78.8586667 197.752667,80.0806667 198.082,81.45 C198.411333,82.8193333 198.576,84.1973333 198.576,85.584 C198.576,86.9706667 198.411333,88.3486667 198.082,89.718 C197.752667,91.0873333 197.215333,92.3093333 196.47,93.384 C195.724667,94.4586667 194.754,95.334 193.558,96.01 C192.362,96.686 190.897333,97.024 189.164,97.024 Z M211.02,67.124 L211.02,61.872 L207.744,61.872 L207.744,67.124 L211.02,67.124 Z M211.02,99 L211.02,72.168 L207.744,72.168 L207.744,99 L211.02,99 Z M224.66,99.26 C225.145333,99.26 225.630667,99.2426667 226.116,99.208 C226.601333,99.1733333 227.086667,99.156 227.572,99.156 L227.572,96.4 C226.636,96.504 225.7,96.556 224.764,96.556 C223.585333,96.4866667 222.848667,96.1486667 222.554,95.542 C222.259333,94.9353333 222.112,94.0946667 222.112,93.02 L222.112,74.924 L227.572,74.924 L227.572,72.168 L222.112,72.168 L222.112,64.108 L218.836,64.108 L218.836,72.168 L214.156,72.168 L214.156,74.924 L218.836,74.924 L218.836,93.28 C218.801333,95.568 219.217333,97.1366667 220.084,97.986 C220.950667,98.8353333 222.476,99.26 224.66,99.26 Z M235.128,99 L235.128,83.348 C235.162667,82.0306667 235.379333,80.8086667 235.778,79.682 C236.176667,78.5553333 236.731333,77.5846667 237.442,76.77 C238.152667,75.9553333 239.019333,75.314 240.042,74.846 C241.064667,74.378 242.234667,74.144 243.552,74.144 C244.869333,74.144 245.97,74.352 246.854,74.768 C247.738,75.184 248.44,75.756 248.96,76.484 C249.48,77.212 249.844,78.07 250.052,79.058 C250.26,80.046 250.364,81.112 250.364,82.256 L250.364,99 L253.64,99 L253.64,81.736 C253.64,80.1413333 253.484,78.7026667 253.172,77.42 C252.86,76.1373333 252.322667,75.054 251.56,74.17 C250.797333,73.286 249.783333,72.6013333 248.518,72.116 C247.252667,71.6306667 245.684,71.388 243.812,71.388 C241.905333,71.388 240.154667,71.882 238.56,72.87 C236.965333,73.858 235.856,75.1666667 235.232,76.796 L235.128,76.796 L235.128,61.872 L231.852,61.872 L231.852,99 L235.128,99 Z M277.54,99 L277.54,66.916 L277.644,66.916 L289.864,99 L293.192,99 L305.88,66.916 L305.984,66.916 L305.984,99 L309.52,99 L309.52,61.872 L304.32,61.872 L291.528,94.424 L279.204,61.872 L274.004,61.872 L274.004,99 L277.54,99 Z M323.316,99.728 C324.633333,99.728 325.768667,99.6066667 326.722,99.364 C327.675333,99.1213333 328.524667,98.7746667 329.27,98.324 C330.015333,97.8733333 330.691333,97.31 331.298,96.634 C331.904667,95.958 332.502667,95.1866667 333.092,94.32 L333.196,94.32 C333.196,95.0133333 333.239333,95.646 333.326,96.218 C333.412667,96.79 333.594667,97.284 333.872,97.7 C334.149333,98.116 334.539333,98.4366667 335.042,98.662 C335.544667,98.8873333 336.212,99 337.044,99 C337.494667,99 337.867333,98.9826667 338.162,98.948 C338.456667,98.9133333 338.794667,98.8613333 339.176,98.792 L339.176,96.036 C338.864,96.1746667 338.517333,96.244 338.136,96.244 C336.853333,96.244 336.212,95.5853333 336.212,94.268 L336.212,80.02 C336.212,78.2173333 335.917333,76.7526667 335.328,75.626 C334.738667,74.4993333 333.976,73.624 333.04,73 C332.104,72.376 331.046667,71.9513333 329.868,71.726 C328.689333,71.5006667 327.510667,71.388 326.332,71.388 C324.772,71.388 323.350667,71.5613333 322.068,71.908 C320.785333,72.2546667 319.667333,72.792 318.714,73.52 C317.760667,74.248 317.006667,75.184 316.452,76.328 C315.897333,77.472 315.568,78.824 315.464,80.384 L318.74,80.384 C318.809333,78.2 319.502667,76.614 320.82,75.626 C322.137333,74.638 323.836,74.144 325.916,74.144 C326.886667,74.144 327.796667,74.222 328.646,74.378 C329.495333,74.534 330.240667,74.82 330.882,75.236 C331.523333,75.652 332.026,76.2153333 332.39,76.926 C332.754,77.6366667 332.936,78.5466667 332.936,79.656 C332.936,80.384 332.840667,80.9733333 332.65,81.424 C332.459333,81.8746667 332.190667,82.23 331.844,82.49 C331.497333,82.75 331.064,82.932 330.544,83.036 C330.024,83.14 329.417333,83.2266667 328.724,83.296 C326.956,83.504 325.214,83.7206667 323.498,83.946 C321.782,84.1713333 320.239333,84.5613333 318.87,85.116 C317.500667,85.6706667 316.4,86.4766667 315.568,87.534 C314.736,88.5913333 314.32,90.056 314.32,91.928 C314.32,93.28 314.554,94.45 315.022,95.438 C315.49,96.426 316.131333,97.2406667 316.946,97.882 C317.760667,98.5233333 318.714,98.9913333 319.806,99.286 C320.898,99.5806667 322.068,99.728 323.316,99.728 Z M323.576,97.024 C322.813333,97.024 322.068,96.9026667 321.34,96.66 C320.612,96.4173333 319.970667,96.062 319.416,95.594 C318.861333,95.126 318.419333,94.5713333 318.09,93.93 C317.760667,93.2886667 317.596,92.552 317.596,91.72 C317.596,90.4026667 317.986,89.3886667 318.766,88.678 C319.546,87.9673333 320.542667,87.4213333 321.756,87.04 C322.969333,86.6586667 324.312667,86.3726667 325.786,86.182 C327.259333,85.9913333 328.689333,85.7746667 330.076,85.532 C330.526667,85.4626667 331.046667,85.3413333 331.636,85.168 C332.225333,84.9946667 332.624,84.7173333 332.832,84.336 L332.936,84.336 L332.936,88.6 C332.936,89.9173333 332.684667,91.096 332.182,92.136 C331.679333,93.176 331.003333,94.06 330.154,94.788 C329.304667,95.516 328.308,96.0706667 327.164,96.452 C326.02,96.8333333 324.824,97.024 323.576,97.024 Z M345.64,99 L345.64,84.7 C345.64,83.2786667 345.882667,81.97 346.368,80.774 C346.853333,79.578 347.538,78.5466667 348.422,77.68 C349.306,76.8133333 350.354667,76.146 351.568,75.678 C352.781333,75.21 354.133333,75.0106667 355.624,75.08 L355.624,71.804 C353.197333,71.7 351.108667,72.2373333 349.358,73.416 C347.607333,74.5946667 346.316,76.276 345.484,78.46 L345.38,78.46 L345.38,72.168 L342.364,72.168 L342.364,99 L345.64,99 Z M366.492,99.26 C366.977333,99.26 367.462667,99.2426667 367.948,99.208 C368.433333,99.1733333 368.918667,99.156 369.404,99.156 L369.404,96.4 C368.468,96.504 367.532,96.556 366.596,96.556 C365.417333,96.4866667 364.680667,96.1486667 364.386,95.542 C364.091333,94.9353333 363.944,94.0946667 363.944,93.02 L363.944,74.924 L369.404,74.924 L369.404,72.168 L363.944,72.168 L363.944,64.108 L360.668,64.108 L360.668,72.168 L355.988,72.168 L355.988,74.924 L360.668,74.924 L360.668,93.28 C360.633333,95.568 361.049333,97.1366667 361.916,97.986 C362.782667,98.8353333 364.308,99.26 366.492,99.26 Z M375.868,108.88 C376.908,108.88 377.766,108.784667 378.442,108.594 C379.118,108.403333 379.707333,108.091333 380.21,107.658 C380.712667,107.224667 381.172,106.635333 381.588,105.89 C382.004,105.144667 382.454667,104.2 382.94,103.056 L394.588,72.168 L391.312,72.168 L383.044,95.048 L374.204,72.168 L370.72,72.168 L381.432,98.896 L380.288,101.912 C380.010667,102.536 379.750667,103.108 379.508,103.628 C379.265333,104.148 378.970667,104.59 378.624,104.954 C378.277333,105.318 377.87,105.604 377.402,105.812 C376.934,106.02 376.336,106.124 375.608,106.124 C375.226667,106.124 374.854,106.098 374.49,106.046 C374.126,105.994 373.753333,105.933333 373.372,105.864 L373.372,108.62 C373.649333,108.724 373.97,108.784667 374.334,108.802 C374.698,108.819333 375.209333,108.845333 375.868,108.88 Z"/>
    <rect width="2" height="104" x="100"/>
    <path fill-rule="nonzero" d="M78.68,40 L78.68,103.649315 C78.68,107.265753 78.3202073,110.560731 77.6006218,113.534247 C76.8810363,116.507763 75.7331261,119.079452 74.1568912,121.249315 C72.5806563,123.419178 70.5075648,125.086758 67.9376166,126.252055 C65.3676684,127.417352 62.2323316,128 58.5316062,128 C55.0364767,128 52.0553368,127.417352 49.5881865,126.252055 C47.1210363,125.086758 45.0993437,123.459361 43.5231088,121.369863 C41.9468739,119.280365 40.7989637,116.809132 40.0793782,113.956164 C39.3597927,111.103196 39,107.989041 39,104.613699 L39,104.613699 L39,99.430137 L41.0559585,99.430137 L41.0559585,104.613699 C41.0559585,111.685845 42.5293955,116.969863 45.4762694,120.465753 C48.4231434,123.961644 52.7749223,125.709589 58.5316062,125.709589 C61.4784801,125.709589 64.0655613,125.307763 66.2928497,124.50411 C68.5201382,123.700457 70.4047668,122.374429 71.9467358,120.526027 C73.4887047,118.677626 74.6537478,116.226484 75.4418653,113.172603 C76.2299827,110.118721 76.6240415,106.341553 76.6240415,101.841096 L76.6240415,101.841096 L76.6240415,40 L78.68,40 Z M3.96,3 L40.2,46.8683473 L40.44,46.8683473 L76.68,3 L76.6743132,7.60408523 L41.39,50 L39.25,50 L2.64,6.01120448 L2.4,6.01120448 L2.4,89 L1.27897692e-13,89 L1.27897692e-13,3 L3.96,3 Z"/>
  </g>
</svg>
